<mxfile host="app.diagrams.net" modified="2022-03-29T02:26:19.198Z" agent="5.0 (Windows NT 10.0; Win64; x64) AppleWebKit/537.36 (KHTML, like Gecko) Chrome/99.0.4844.74 Safari/537.36 Edg/99.0.1150.52" etag="wwn4Ih6Ajm5toSr9ej8V" version="17.2.4" type="github">
  <diagram id="cOghUG_4-r9dNmQ5ab8V" name="Page-1">
    <mxGraphModel dx="1014" dy="677" grid="1" gridSize="10" guides="1" tooltips="1" connect="1" arrows="1" fold="1" page="1" pageScale="1" pageWidth="850" pageHeight="1100" math="0" shadow="0">
      <root>
        <mxCell id="0" />
        <mxCell id="1" parent="0" />
        <mxCell id="YW9AKUPmVMG-buTFdsNI-2" value="" style="rounded=0;whiteSpace=wrap;html=1;fillColor=#FFFFFF;strokeColor=#1A1A1A;shadow=0;glass=0;sketch=0;" vertex="1" parent="1">
          <mxGeometry x="70" y="20" width="770" height="430" as="geometry" />
        </mxCell>
        <mxCell id="YW9AKUPmVMG-buTFdsNI-3" value="" style="rounded=0;whiteSpace=wrap;html=1;fillColor=#d5e8d4;strokeColor=#82b366;" vertex="1" parent="1">
          <mxGeometry x="140" y="70" width="170" height="110" as="geometry" />
        </mxCell>
        <mxCell id="YW9AKUPmVMG-buTFdsNI-4" value="" style="rounded=0;whiteSpace=wrap;html=1;fillColor=#dae8fc;strokeColor=#6c8ebf;" vertex="1" parent="1">
          <mxGeometry x="370" y="70" width="190" height="110" as="geometry" />
        </mxCell>
        <mxCell id="YW9AKUPmVMG-buTFdsNI-5" value="" style="rounded=0;whiteSpace=wrap;html=1;fillColor=#dae8fc;strokeColor=#6c8ebf;" vertex="1" parent="1">
          <mxGeometry x="610" y="70" width="170" height="110" as="geometry" />
        </mxCell>
        <mxCell id="YW9AKUPmVMG-buTFdsNI-12" style="edgeStyle=orthogonalEdgeStyle;rounded=0;orthogonalLoop=1;jettySize=auto;html=1;exitX=1;exitY=0.5;exitDx=0;exitDy=0;entryX=1;entryY=0.75;entryDx=0;entryDy=0;" edge="1" parent="1" source="YW9AKUPmVMG-buTFdsNI-6" target="YW9AKUPmVMG-buTFdsNI-6">
          <mxGeometry relative="1" as="geometry">
            <Array as="points">
              <mxPoint x="510" y="310" />
              <mxPoint x="510" y="310" />
            </Array>
          </mxGeometry>
        </mxCell>
        <mxCell id="YW9AKUPmVMG-buTFdsNI-6" value="" style="rounded=0;whiteSpace=wrap;html=1;fillColor=#dae8fc;strokeColor=#6c8ebf;" vertex="1" parent="1">
          <mxGeometry x="370" y="300" width="190" height="100" as="geometry" />
        </mxCell>
        <mxCell id="YW9AKUPmVMG-buTFdsNI-7" value="" style="rounded=0;whiteSpace=wrap;html=1;fillColor=#d5e8d4;strokeColor=#82b366;" vertex="1" parent="1">
          <mxGeometry x="140" y="300" width="170" height="100" as="geometry" />
        </mxCell>
        <mxCell id="YW9AKUPmVMG-buTFdsNI-8" value="" style="rounded=0;whiteSpace=wrap;html=1;fillColor=#dae8fc;strokeColor=#6c8ebf;" vertex="1" parent="1">
          <mxGeometry x="610" y="300" width="180" height="100" as="geometry" />
        </mxCell>
        <mxCell id="YW9AKUPmVMG-buTFdsNI-11" value="" style="sketch=0;points=[[0,0,0],[0.25,0,0],[0.5,0,0],[0.75,0,0],[1,0,0],[0,1,0],[0.25,1,0],[0.5,1,0],[0.75,1,0],[1,1,0],[0,0.25,0],[0,0.5,0],[0,0.75,0],[1,0.25,0],[1,0.5,0],[1,0.75,0]];outlineConnect=0;fontColor=#232F3E;gradientColor=#F78E04;gradientDirection=north;fillColor=#D05C17;strokeColor=#ffffff;dashed=0;verticalLabelPosition=bottom;verticalAlign=top;align=center;html=1;fontSize=12;fontStyle=0;aspect=fixed;shape=mxgraph.aws4.resourceIcon;resIcon=mxgraph.aws4.auto_scaling2;" vertex="1" parent="1">
          <mxGeometry x="425" y="216" width="48" height="48" as="geometry" />
        </mxCell>
        <mxCell id="YW9AKUPmVMG-buTFdsNI-13" value="" style="sketch=0;outlineConnect=0;fontColor=#232F3E;gradientColor=none;fillColor=#4D27AA;strokeColor=none;dashed=0;verticalLabelPosition=bottom;verticalAlign=top;align=center;html=1;fontSize=12;fontStyle=0;aspect=fixed;pointerEvents=1;shape=mxgraph.aws4.internet_gateway;" vertex="1" parent="1">
          <mxGeometry x="40" y="190" width="58" height="58" as="geometry" />
        </mxCell>
        <mxCell id="YW9AKUPmVMG-buTFdsNI-14" value="" style="sketch=0;outlineConnect=0;fontColor=#232F3E;gradientColor=none;fillColor=#4D27AA;strokeColor=none;dashed=0;verticalLabelPosition=bottom;verticalAlign=top;align=center;html=1;fontSize=12;fontStyle=0;aspect=fixed;pointerEvents=1;shape=mxgraph.aws4.nat_gateway;" vertex="1" parent="1">
          <mxGeometry x="190" y="93" width="54" height="54" as="geometry" />
        </mxCell>
        <mxCell id="YW9AKUPmVMG-buTFdsNI-15" value="" style="sketch=0;outlineConnect=0;fontColor=#232F3E;gradientColor=none;fillColor=#4D27AA;strokeColor=none;dashed=0;verticalLabelPosition=bottom;verticalAlign=top;align=center;html=1;fontSize=12;fontStyle=0;aspect=fixed;pointerEvents=1;shape=mxgraph.aws4.nat_gateway;shadow=1;" vertex="1" parent="1">
          <mxGeometry x="186" y="321" width="58" height="58" as="geometry" />
        </mxCell>
        <mxCell id="YW9AKUPmVMG-buTFdsNI-16" value="" style="sketch=0;outlineConnect=0;fontColor=#232F3E;gradientColor=none;fillColor=#4D27AA;strokeColor=none;dashed=0;verticalLabelPosition=bottom;verticalAlign=top;align=center;html=1;fontSize=12;fontStyle=0;aspect=fixed;pointerEvents=1;shape=mxgraph.aws4.application_load_balancer;" vertex="1" parent="1">
          <mxGeometry x="194" y="210" width="54" height="54" as="geometry" />
        </mxCell>
        <mxCell id="YW9AKUPmVMG-buTFdsNI-17" style="edgeStyle=orthogonalEdgeStyle;rounded=0;orthogonalLoop=1;jettySize=auto;html=1;exitX=0;exitY=0;exitDx=0;exitDy=0;dashed=1;" edge="1" parent="1" source="YW9AKUPmVMG-buTFdsNI-2" target="YW9AKUPmVMG-buTFdsNI-2">
          <mxGeometry relative="1" as="geometry">
            <Array as="points">
              <mxPoint x="830" y="150" />
              <mxPoint x="830" y="150" />
            </Array>
          </mxGeometry>
        </mxCell>
        <mxCell id="YW9AKUPmVMG-buTFdsNI-21" value="" style="shape=partialRectangle;whiteSpace=wrap;html=1;bottom=0;right=0;fillColor=none;rounded=0;shadow=0;glass=0;sketch=0;strokeColor=#1A1A1A;" vertex="1" parent="1">
          <mxGeometry x="116" y="50" width="70" height="60" as="geometry" />
        </mxCell>
        <mxCell id="YW9AKUPmVMG-buTFdsNI-22" value="" style="shape=partialRectangle;whiteSpace=wrap;html=1;top=0;left=0;fillColor=none;rounded=0;shadow=0;glass=0;sketch=0;strokeColor=#1A1A1A;" vertex="1" parent="1">
          <mxGeometry x="730" y="134" width="70" height="67" as="geometry" />
        </mxCell>
        <mxCell id="YW9AKUPmVMG-buTFdsNI-23" value="" style="shape=partialRectangle;whiteSpace=wrap;html=1;top=0;left=0;fillColor=none;rounded=0;shadow=0;glass=0;sketch=0;strokeColor=#1A1A1A;rotation=0;" vertex="1" parent="1">
          <mxGeometry x="740" y="360" width="70" height="60" as="geometry" />
        </mxCell>
        <mxCell id="YW9AKUPmVMG-buTFdsNI-24" value="" style="shape=partialRectangle;whiteSpace=wrap;html=1;top=0;left=0;fillColor=none;rounded=0;shadow=0;glass=0;sketch=0;strokeColor=#1A1A1A;rotation=90;" vertex="1" parent="1">
          <mxGeometry x="116" y="141" width="58" height="60" as="geometry" />
        </mxCell>
        <mxCell id="YW9AKUPmVMG-buTFdsNI-28" value="" style="shape=partialRectangle;whiteSpace=wrap;html=1;bottom=0;right=0;fillColor=none;rounded=0;shadow=0;glass=0;sketch=0;strokeColor=#1A1A1A;rotation=90;" vertex="1" parent="1">
          <mxGeometry x="735" y="45" width="60" height="70" as="geometry" />
        </mxCell>
        <mxCell id="YW9AKUPmVMG-buTFdsNI-29" value="" style="shape=partialRectangle;whiteSpace=wrap;html=1;bottom=0;right=0;fillColor=none;rounded=0;shadow=0;glass=0;sketch=0;strokeColor=#1A1A1A;" vertex="1" parent="1">
          <mxGeometry x="124" y="280" width="56" height="60" as="geometry" />
        </mxCell>
        <mxCell id="YW9AKUPmVMG-buTFdsNI-30" value="" style="shape=partialRectangle;whiteSpace=wrap;html=1;top=0;left=0;fillColor=none;rounded=0;shadow=0;glass=0;sketch=0;strokeColor=#1A1A1A;rotation=-90;" vertex="1" parent="1">
          <mxGeometry x="750" y="280" width="60" height="60" as="geometry" />
        </mxCell>
        <mxCell id="YW9AKUPmVMG-buTFdsNI-31" value="" style="shape=partialRectangle;whiteSpace=wrap;html=1;bottom=0;right=0;fillColor=none;rounded=0;shadow=0;glass=0;sketch=0;strokeColor=#1A1A1A;rotation=-90;" vertex="1" parent="1">
          <mxGeometry x="129.5" y="359.5" width="48" height="60" as="geometry" />
        </mxCell>
      </root>
    </mxGraphModel>
  </diagram>
</mxfile>
